Coordinates
version=1
nRows=5
nColumns=40
inDegrees=yes

Units are S.I. units (second, meters, Newtons, ...)
Angles are in degrees.

endheader
time	pelvis_tilt	pelvis_list	pelvis_rotation	pelvis_tx	pelvis_ty	pelvis_tz	hip_flexion_r	hip_adduction_r	hip_rotation_r	knee_angle_r	knee_angle_r_beta	ankle_angle_r	subtalar_angle_r	mtp_angle_r	hip_flexion_l	hip_adduction_l	hip_rotation_l	knee_angle_l	knee_angle_l_beta	ankle_angle_l	subtalar_angle_l	mtp_angle_l	lumbar_extension	lumbar_bending	lumbar_rotation	arm_flex_r	arm_add_r	arm_rot_r	elbow_flex_r	pro_sup_r	wrist_flex_r	wrist_dev_r	arm_flex_l	arm_add_l	arm_rot_l	elbow_flex_l	pro_sup_l	wrist_flex_l	wrist_dev_l
     36.14250000	     -4.69852485	     -5.33206631	      7.43814157	      0.94530106	      0.91795434	      0.51383595	     -0.42787796	      2.78572197	    -18.84158562	     17.12479056	     17.12479056	     18.45975708	     -3.62600660	     -1.54917223	     27.86842400	     -5.19620364	      4.59501406	     29.11817520	     29.11817520	      9.21589728	    -13.73060222	      5.36874669	     -8.73172232	      2.88169713	      4.00126983	     49.22630217	    -17.45937365	    -10.75288339	     76.36520661	     44.84284869	      0.00000000	      0.00000000	    -10.69642912	     -8.63032609	     -2.08078737	     45.91053217	     45.73058131	      0.00000000	      0.00000000
     36.16171429	     -4.86294552	     -5.29141256	      7.05518956	      0.94599993	      0.91892721	      0.50950969	     -0.53284690	      2.24688923	    -18.90558503	     17.48433342	     17.48433342	     18.08296513	     -2.95941059	     -1.76315225	     27.34377835	     -4.98839078	      4.31680896	     28.91149264	     28.91149264	      9.61782403	    -13.95229564	      5.61889725	     -8.56537529	      2.89616445	      4.25290458	     49.04371500	    -17.60629060	    -10.99927262	     74.64961760	     44.91715226	      0.00000000	      0.00000000	     -9.89487290	     -8.82895734	     -2.46000157	     47.72694997	     45.80471884	      0.00000000	      0.00000000
     36.18092857	     -5.03048644	     -5.47054349	      6.70290509	      0.94661299	      0.91985199	      0.50531384	     -0.60539847	      2.01719240	    -18.71980613	     17.76133500	     17.76133500	     17.56264199	     -2.71419080	     -1.70762760	     26.93950757	     -5.01402326	      4.11387637	     28.81942435	     28.81942435	     10.01719766	    -14.12696965	      5.55891437	     -8.45144635	      3.20878458	      4.03482332	     48.64454739	    -17.33316122	    -10.93162611	     74.28713089	     44.92592766	      0.00000000	      0.00000000	     -8.93456904	     -9.04584012	     -2.54896942	     48.28496028	     45.82945597	      0.00000000	      0.00000000
     36.20014286	     -5.11917520	     -5.21958221	      6.21594323	      0.94710303	      0.92100431	      0.50089914	     -0.43223757	      1.08532901	    -18.70629888	     18.82521604	     18.82521604	     17.21942921	     -2.11766441	     -2.36978299	     26.14041010	     -4.68646977	      3.46070999	     28.31290557	     28.31290557	     10.36983468	    -13.99135480	      5.78018417	     -8.33961398	      3.01595319	      4.50854182	     48.27319023	    -17.66482655	    -11.48485718	     71.47788325	     45.04530268	      0.00000000	      0.00000000	     -8.13627159	     -9.40276258	     -2.86884807	     50.59313997	     45.90172469	      0.00000000	      0.00000000
     36.21935714	     -5.16463679	     -5.25442646	      5.84073159	      0.94762270	      0.92195352	      0.49650207	     -0.34629212	      0.54064985	    -18.67860892	     19.65291726	     19.65291726	     16.21153957	     -1.94490780	     -4.29912582	     25.53784578	     -4.58966276	      3.08516102	     28.15915921	     28.15915921	     10.95931244	    -13.91230695	      6.11484961	     -8.21529035	      3.19457737	      3.22358453	     49.14126409	    -15.84636481	    -11.95723396	     66.70283287	     45.24812095	      0.00000000	      0.00000000	     -8.74168483	    -10.04347048	     -3.20319789	     53.95559240	     46.01929063	      0.00000000	      0.00000000
